<svg width="1440" height="1024" viewBox="0 0 1440 1024" fill="none" xmlns="http://www.w3.org/2000/svg">
<g clip-path="url(#clip0_1_2)">
<rect width="1440" height="1024" fill="#FFEFD7"/>
<circle cy="-1" r="5" fill="#36637A" fill-opacity="0.36"/>
<circle cx="49.6552" cy="-1" r="5" fill="#36637A" fill-opacity="0.36"/>
<circle cx="99.3104" cy="-1" r="5" fill="#36637A" fill-opacity="0.36"/>
<circle cx="148.966" cy="-1" r="5" fill="#36637A" fill-opacity="0.36"/>
<circle cx="198.621" cy="-1" r="5" fill="#36637A" fill-opacity="0.36"/>
<circle cx="248.276" cy="-1" r="5" fill="#36637A" fill-opacity="0.36"/>
<circle cx="297.931" cy="-1" r="5" fill="#36637A" fill-opacity="0.36"/>
<circle cx="347.586" cy="-1" r="5" fill="#36637A" fill-opacity="0.36"/>
<circle cx="397.241" cy="-1" r="5" fill="#36637A" fill-opacity="0.36"/>
<circle cx="446.897" cy="-1" r="5" fill="#36637A" fill-opacity="0.36"/>
<circle cx="496.552" cy="-1" r="5" fill="#36637A" fill-opacity="0.36"/>
<circle cx="546.207" cy="-1" r="5" fill="#36637A" fill-opacity="0.36"/>
<circle cx="595.862" cy="-1" r="5" fill="#36637A" fill-opacity="0.36"/>
<circle cx="645.517" cy="-1" r="5" fill="#36637A" fill-opacity="0.36"/>
<circle cx="695.172" cy="-1" r="5" fill="#36637A" fill-opacity="0.36"/>
<circle cx="744.828" cy="-1" r="5" fill="#36637A" fill-opacity="0.36"/>
<circle cx="794.483" cy="-1" r="5" fill="#36637A" fill-opacity="0.36"/>
<circle cx="844.138" cy="-1" r="5" fill="#36637A" fill-opacity="0.36"/>
<circle cx="893.793" cy="-1" r="5" fill="#36637A" fill-opacity="0.36"/>
<circle cx="943.448" cy="-1" r="5" fill="#36637A" fill-opacity="0.36"/>
<circle cx="993.103" cy="-1" r="5" fill="#36637A" fill-opacity="0.36"/>
<circle cx="1042.76" cy="-1" r="5" fill="#36637A" fill-opacity="0.36"/>
<circle cx="1092.41" cy="-1" r="5" fill="#36637A" fill-opacity="0.36"/>
<circle cx="1142.07" cy="-1" r="5" fill="#36637A" fill-opacity="0.36"/>
<circle cx="1191.72" cy="-1" r="5" fill="#36637A" fill-opacity="0.36"/>
<circle cx="1241.38" cy="-1" r="5" fill="#36637A" fill-opacity="0.36"/>
<circle cx="1291.03" cy="-1" r="5" fill="#36637A" fill-opacity="0.36"/>
<circle cx="1340.69" cy="-1" r="5" fill="#36637A" fill-opacity="0.36"/>
<circle cx="1390.34" cy="-1" r="5" fill="#36637A" fill-opacity="0.36"/>
<circle cx="1440" cy="-1" r="5" fill="#36637A" fill-opacity="0.36"/>
<circle cy="52.9474" r="5" fill="#36637A" fill-opacity="0.36"/>
<circle cx="49.6552" cy="52.9474" r="5" fill="#36637A" fill-opacity="0.36"/>
<circle cx="99.3104" cy="52.9474" r="5" fill="#36637A" fill-opacity="0.36"/>
<circle cx="148.966" cy="52.9474" r="5" fill="#36637A" fill-opacity="0.36"/>
<circle cx="198.621" cy="52.9474" r="5" fill="#36637A" fill-opacity="0.36"/>
<circle cx="248.276" cy="52.9474" r="5" fill="#36637A" fill-opacity="0.36"/>
<circle cx="297.931" cy="52.9474" r="5" fill="#36637A" fill-opacity="0.36"/>
<circle cx="347.586" cy="52.9474" r="5" fill="#36637A" fill-opacity="0.36"/>
<circle cx="397.241" cy="52.9474" r="5" fill="#36637A" fill-opacity="0.36"/>
<circle cx="446.897" cy="52.9474" r="5" fill="#36637A" fill-opacity="0.36"/>
<circle cx="496.552" cy="52.9474" r="5" fill="#36637A" fill-opacity="0.36"/>
<circle cx="546.207" cy="52.9474" r="5" fill="#36637A" fill-opacity="0.36"/>
<circle cx="595.862" cy="52.9474" r="5" fill="#36637A" fill-opacity="0.36"/>
<circle cx="645.517" cy="52.9474" r="5" fill="#36637A" fill-opacity="0.36"/>
<circle cx="695.172" cy="52.9474" r="5" fill="#36637A" fill-opacity="0.36"/>
<circle cx="744.828" cy="52.9474" r="5" fill="#36637A" fill-opacity="0.36"/>
<circle cx="794.483" cy="52.9474" r="5" fill="#36637A" fill-opacity="0.36"/>
<circle cx="844.138" cy="52.9474" r="5" fill="#36637A" fill-opacity="0.36"/>
<circle cx="893.793" cy="52.9474" r="5" fill="#36637A" fill-opacity="0.36"/>
<circle cx="943.448" cy="52.9474" r="5" fill="#36637A" fill-opacity="0.36"/>
<circle cx="993.103" cy="52.9474" r="5" fill="#36637A" fill-opacity="0.36"/>
<circle cx="1042.76" cy="52.9474" r="5" fill="#36637A" fill-opacity="0.36"/>
<circle cx="1092.41" cy="52.9474" r="5" fill="#36637A" fill-opacity="0.36"/>
<circle cx="1142.07" cy="52.9474" r="5" fill="#36637A" fill-opacity="0.36"/>
<circle cx="1191.72" cy="52.9474" r="5" fill="#36637A" fill-opacity="0.36"/>
<circle cx="1241.38" cy="52.9474" r="5" fill="#36637A" fill-opacity="0.36"/>
<circle cx="1291.03" cy="52.9474" r="5" fill="#36637A" fill-opacity="0.36"/>
<circle cx="1340.69" cy="52.9474" r="5" fill="#36637A" fill-opacity="0.36"/>
<circle cx="1390.34" cy="52.9474" r="5" fill="#36637A" fill-opacity="0.36"/>
<circle cx="1440" cy="52.9474" r="5" fill="#36637A" fill-opacity="0.36"/>
<circle cy="106.895" r="5" fill="#36637A" fill-opacity="0.36"/>
<circle cx="49.6552" cy="106.895" r="5" fill="#36637A" fill-opacity="0.36"/>
<circle cx="99.3104" cy="106.895" r="5" fill="#36637A" fill-opacity="0.36"/>
<circle cx="148.966" cy="106.895" r="5" fill="#36637A" fill-opacity="0.36"/>
<circle cx="198.621" cy="106.895" r="5" fill="#36637A" fill-opacity="0.36"/>
<circle cx="248.276" cy="106.895" r="5" fill="#36637A" fill-opacity="0.36"/>
<circle cx="297.931" cy="106.895" r="5" fill="#36637A" fill-opacity="0.36"/>
<circle cx="347.586" cy="106.895" r="5" fill="#36637A" fill-opacity="0.36"/>
<circle cx="397.241" cy="106.895" r="5" fill="#36637A" fill-opacity="0.36"/>
<circle cx="446.897" cy="106.895" r="5" fill="#36637A" fill-opacity="0.36"/>
<circle cx="496.552" cy="106.895" r="5" fill="#36637A" fill-opacity="0.36"/>
<circle cx="546.207" cy="106.895" r="5" fill="#36637A" fill-opacity="0.36"/>
<circle cx="595.862" cy="106.895" r="5" fill="#36637A" fill-opacity="0.36"/>
<circle cx="645.517" cy="106.895" r="5" fill="#36637A" fill-opacity="0.36"/>
<circle cx="695.172" cy="106.895" r="5" fill="#36637A" fill-opacity="0.36"/>
<circle cx="744.828" cy="106.895" r="5" fill="#36637A" fill-opacity="0.36"/>
<circle cx="794.483" cy="106.895" r="5" fill="#36637A" fill-opacity="0.36"/>
<circle cx="844.138" cy="106.895" r="5" fill="#36637A" fill-opacity="0.36"/>
<circle cx="893.793" cy="106.895" r="5" fill="#36637A" fill-opacity="0.36"/>
<circle cx="943.448" cy="106.895" r="5" fill="#36637A" fill-opacity="0.36"/>
<circle cx="993.103" cy="106.895" r="5" fill="#36637A" fill-opacity="0.36"/>
<circle cx="1042.76" cy="106.895" r="5" fill="#36637A" fill-opacity="0.36"/>
<circle cx="1092.41" cy="106.895" r="5" fill="#36637A" fill-opacity="0.36"/>
<circle cx="1142.07" cy="106.895" r="5" fill="#36637A" fill-opacity="0.36"/>
<circle cx="1191.72" cy="106.895" r="5" fill="#36637A" fill-opacity="0.36"/>
<circle cx="1241.38" cy="106.895" r="5" fill="#36637A" fill-opacity="0.36"/>
<circle cx="1291.03" cy="106.895" r="5" fill="#36637A" fill-opacity="0.36"/>
<circle cx="1340.69" cy="106.895" r="5" fill="#36637A" fill-opacity="0.36"/>
<circle cx="1390.34" cy="106.895" r="5" fill="#36637A" fill-opacity="0.36"/>
<circle cx="1440" cy="106.895" r="5" fill="#36637A" fill-opacity="0.36"/>
<circle cy="160.842" r="5" fill="#36637A" fill-opacity="0.36"/>
<circle cx="49.6552" cy="160.842" r="5" fill="#36637A" fill-opacity="0.36"/>
<circle cx="99.3104" cy="160.842" r="5" fill="#36637A" fill-opacity="0.36"/>
<circle cx="148.966" cy="160.842" r="5" fill="#36637A" fill-opacity="0.36"/>
<circle cx="198.621" cy="160.842" r="5" fill="#36637A" fill-opacity="0.36"/>
<circle cx="248.276" cy="160.842" r="5" fill="#36637A" fill-opacity="0.36"/>
<circle cx="297.931" cy="160.842" r="5" fill="#36637A" fill-opacity="0.36"/>
<circle cx="347.586" cy="160.842" r="5" fill="#36637A" fill-opacity="0.36"/>
<circle cx="397.241" cy="160.842" r="5" fill="#36637A" fill-opacity="0.36"/>
<circle cx="446.897" cy="160.842" r="5" fill="#36637A" fill-opacity="0.36"/>
<circle cx="496.552" cy="160.842" r="5" fill="#36637A" fill-opacity="0.36"/>
<circle cx="546.207" cy="160.842" r="5" fill="#36637A" fill-opacity="0.36"/>
<circle cx="595.862" cy="160.842" r="5" fill="#36637A" fill-opacity="0.36"/>
<circle cx="645.517" cy="160.842" r="5" fill="#36637A" fill-opacity="0.36"/>
<circle cx="695.172" cy="160.842" r="5" fill="#36637A" fill-opacity="0.36"/>
<circle cx="744.828" cy="160.842" r="5" fill="#36637A" fill-opacity="0.36"/>
<circle cx="794.483" cy="160.842" r="5" fill="#36637A" fill-opacity="0.36"/>
<circle cx="844.138" cy="160.842" r="5" fill="#36637A" fill-opacity="0.36"/>
<circle cx="893.793" cy="160.842" r="5" fill="#36637A" fill-opacity="0.36"/>
<circle cx="943.448" cy="160.842" r="5" fill="#36637A" fill-opacity="0.36"/>
<circle cx="993.103" cy="160.842" r="5" fill="#36637A" fill-opacity="0.36"/>
<circle cx="1042.76" cy="160.842" r="5" fill="#36637A" fill-opacity="0.36"/>
<circle cx="1092.41" cy="160.842" r="5" fill="#36637A" fill-opacity="0.36"/>
<circle cx="1142.07" cy="160.842" r="5" fill="#36637A" fill-opacity="0.36"/>
<circle cx="1191.72" cy="160.842" r="5" fill="#36637A" fill-opacity="0.36"/>
<circle cx="1241.38" cy="160.842" r="5" fill="#36637A" fill-opacity="0.36"/>
<circle cx="1291.03" cy="160.842" r="5" fill="#36637A" fill-opacity="0.36"/>
<circle cx="1340.69" cy="160.842" r="5" fill="#36637A" fill-opacity="0.36"/>
<circle cx="1390.34" cy="160.842" r="5" fill="#36637A" fill-opacity="0.36"/>
<circle cx="1440" cy="160.842" r="5" fill="#36637A" fill-opacity="0.36"/>
<circle cy="214.789" r="5" fill="#36637A" fill-opacity="0.36"/>
<circle cx="49.6552" cy="214.789" r="5" fill="#36637A" fill-opacity="0.36"/>
<circle cx="99.3104" cy="214.789" r="5" fill="#36637A" fill-opacity="0.36"/>
<circle cx="148.966" cy="214.789" r="5" fill="#36637A" fill-opacity="0.36"/>
<circle cx="198.621" cy="214.789" r="5" fill="#36637A" fill-opacity="0.36"/>
<circle cx="248.276" cy="214.789" r="5" fill="#36637A" fill-opacity="0.36"/>
<circle cx="297.931" cy="214.789" r="5" fill="#36637A" fill-opacity="0.36"/>
<circle cx="347.586" cy="214.789" r="5" fill="#36637A" fill-opacity="0.36"/>
<circle cx="397.241" cy="214.789" r="5" fill="#36637A" fill-opacity="0.36"/>
<circle cx="446.897" cy="214.789" r="5" fill="#36637A" fill-opacity="0.36"/>
<circle cx="496.552" cy="214.789" r="5" fill="#36637A" fill-opacity="0.36"/>
<circle cx="546.207" cy="214.789" r="5" fill="#36637A" fill-opacity="0.36"/>
<circle cx="595.862" cy="214.789" r="5" fill="#36637A" fill-opacity="0.36"/>
<circle cx="645.517" cy="214.789" r="5" fill="#36637A" fill-opacity="0.36"/>
<circle cx="695.172" cy="214.789" r="5" fill="#36637A" fill-opacity="0.36"/>
<circle cx="744.828" cy="214.789" r="5" fill="#36637A" fill-opacity="0.36"/>
<circle cx="794.483" cy="214.789" r="5" fill="#36637A" fill-opacity="0.36"/>
<circle cx="844.138" cy="214.789" r="5" fill="#36637A" fill-opacity="0.36"/>
<circle cx="893.793" cy="214.789" r="5" fill="#36637A" fill-opacity="0.36"/>
<circle cx="943.448" cy="214.789" r="5" fill="#36637A" fill-opacity="0.36"/>
<circle cx="993.103" cy="214.789" r="5" fill="#36637A" fill-opacity="0.36"/>
<circle cx="1042.76" cy="214.789" r="5" fill="#36637A" fill-opacity="0.36"/>
<circle cx="1092.41" cy="214.789" r="5" fill="#36637A" fill-opacity="0.36"/>
<circle cx="1142.07" cy="214.789" r="5" fill="#36637A" fill-opacity="0.36"/>
<circle cx="1191.72" cy="214.789" r="5" fill="#36637A" fill-opacity="0.36"/>
<circle cx="1241.38" cy="214.789" r="5" fill="#36637A" fill-opacity="0.36"/>
<circle cx="1291.03" cy="214.789" r="5" fill="#36637A" fill-opacity="0.36"/>
<circle cx="1340.69" cy="214.789" r="5" fill="#36637A" fill-opacity="0.36"/>
<circle cx="1390.34" cy="214.789" r="5" fill="#36637A" fill-opacity="0.36"/>
<circle cx="1440" cy="214.789" r="5" fill="#36637A" fill-opacity="0.36"/>
<circle cy="268.737" r="5" fill="#36637A" fill-opacity="0.36"/>
<circle cx="49.6552" cy="268.737" r="5" fill="#36637A" fill-opacity="0.36"/>
<circle cx="99.3104" cy="268.737" r="5" fill="#36637A" fill-opacity="0.36"/>
<circle cx="148.966" cy="268.737" r="5" fill="#36637A" fill-opacity="0.36"/>
<circle cx="198.621" cy="268.737" r="5" fill="#36637A" fill-opacity="0.36"/>
<circle cx="248.276" cy="268.737" r="5" fill="#36637A" fill-opacity="0.36"/>
<circle cx="297.931" cy="268.737" r="5" fill="#36637A" fill-opacity="0.36"/>
<circle cx="347.586" cy="268.737" r="5" fill="#36637A" fill-opacity="0.36"/>
<circle cx="397.241" cy="268.737" r="5" fill="#36637A" fill-opacity="0.36"/>
<circle cx="446.897" cy="268.737" r="5" fill="#36637A" fill-opacity="0.36"/>
<circle cx="496.552" cy="268.737" r="5" fill="#36637A" fill-opacity="0.36"/>
<circle cx="546.207" cy="268.737" r="5" fill="#36637A" fill-opacity="0.36"/>
<circle cx="595.862" cy="268.737" r="5" fill="#36637A" fill-opacity="0.36"/>
<circle cx="645.517" cy="268.737" r="5" fill="#36637A" fill-opacity="0.36"/>
<circle cx="695.172" cy="268.737" r="5" fill="#36637A" fill-opacity="0.36"/>
<circle cx="744.828" cy="268.737" r="5" fill="#36637A" fill-opacity="0.36"/>
<circle cx="794.483" cy="268.737" r="5" fill="#36637A" fill-opacity="0.36"/>
<circle cx="844.138" cy="268.737" r="5" fill="#36637A" fill-opacity="0.36"/>
<circle cx="893.793" cy="268.737" r="5" fill="#36637A" fill-opacity="0.36"/>
<circle cx="943.448" cy="268.737" r="5" fill="#36637A" fill-opacity="0.36"/>
<circle cx="993.103" cy="268.737" r="5" fill="#36637A" fill-opacity="0.36"/>
<circle cx="1042.76" cy="268.737" r="5" fill="#36637A" fill-opacity="0.36"/>
<circle cx="1092.41" cy="268.737" r="5" fill="#36637A" fill-opacity="0.36"/>
<circle cx="1142.07" cy="268.737" r="5" fill="#36637A" fill-opacity="0.36"/>
<circle cx="1191.72" cy="268.737" r="5" fill="#36637A" fill-opacity="0.36"/>
<circle cx="1241.38" cy="268.737" r="5" fill="#36637A" fill-opacity="0.36"/>
<circle cx="1291.03" cy="268.737" r="5" fill="#36637A" fill-opacity="0.36"/>
<circle cx="1340.69" cy="268.737" r="5" fill="#36637A" fill-opacity="0.36"/>
<circle cx="1390.34" cy="268.737" r="5" fill="#36637A" fill-opacity="0.36"/>
<circle cx="1440" cy="268.737" r="5" fill="#36637A" fill-opacity="0.36"/>
<circle cy="322.684" r="5" fill="#36637A" fill-opacity="0.36"/>
<circle cx="49.6552" cy="322.684" r="5" fill="#36637A" fill-opacity="0.36"/>
<circle cx="99.3104" cy="322.684" r="5" fill="#36637A" fill-opacity="0.36"/>
<circle cx="148.966" cy="322.684" r="5" fill="#36637A" fill-opacity="0.36"/>
<circle cx="198.621" cy="322.684" r="5" fill="#36637A" fill-opacity="0.36"/>
<circle cx="248.276" cy="322.684" r="5" fill="#36637A" fill-opacity="0.36"/>
<circle cx="297.931" cy="322.684" r="5" fill="#36637A" fill-opacity="0.36"/>
<circle cx="347.586" cy="322.684" r="5" fill="#36637A" fill-opacity="0.36"/>
<circle cx="397.241" cy="322.684" r="5" fill="#36637A" fill-opacity="0.36"/>
<circle cx="446.897" cy="322.684" r="5" fill="#36637A" fill-opacity="0.36"/>
<circle cx="496.552" cy="322.684" r="5" fill="#36637A" fill-opacity="0.36"/>
<circle cx="546.207" cy="322.684" r="5" fill="#36637A" fill-opacity="0.36"/>
<circle cx="595.862" cy="322.684" r="5" fill="#36637A" fill-opacity="0.36"/>
<circle cx="645.517" cy="322.684" r="5" fill="#36637A" fill-opacity="0.36"/>
<circle cx="695.172" cy="322.684" r="5" fill="#36637A" fill-opacity="0.36"/>
<circle cx="744.828" cy="322.684" r="5" fill="#36637A" fill-opacity="0.36"/>
<circle cx="794.483" cy="322.684" r="5" fill="#36637A" fill-opacity="0.36"/>
<circle cx="844.138" cy="322.684" r="5" fill="#36637A" fill-opacity="0.36"/>
<circle cx="893.793" cy="322.684" r="5" fill="#36637A" fill-opacity="0.36"/>
<circle cx="943.448" cy="322.684" r="5" fill="#36637A" fill-opacity="0.36"/>
<circle cx="993.103" cy="322.684" r="5" fill="#36637A" fill-opacity="0.36"/>
<circle cx="1042.76" cy="322.684" r="5" fill="#36637A" fill-opacity="0.36"/>
<circle cx="1092.41" cy="322.684" r="5" fill="#36637A" fill-opacity="0.36"/>
<circle cx="1142.07" cy="322.684" r="5" fill="#36637A" fill-opacity="0.36"/>
<circle cx="1191.72" cy="322.684" r="5" fill="#36637A" fill-opacity="0.36"/>
<circle cx="1241.38" cy="322.684" r="5" fill="#36637A" fill-opacity="0.36"/>
<circle cx="1291.03" cy="322.684" r="5" fill="#36637A" fill-opacity="0.36"/>
<circle cx="1340.69" cy="322.684" r="5" fill="#36637A" fill-opacity="0.36"/>
<circle cx="1390.34" cy="322.684" r="5" fill="#36637A" fill-opacity="0.36"/>
<circle cx="1440" cy="322.684" r="5" fill="#36637A" fill-opacity="0.36"/>
<circle cy="376.632" r="5" fill="#36637A" fill-opacity="0.36"/>
<circle cx="49.6552" cy="376.632" r="5" fill="#36637A" fill-opacity="0.36"/>
<circle cx="99.3104" cy="376.632" r="5" fill="#36637A" fill-opacity="0.36"/>
<circle cx="148.966" cy="376.632" r="5" fill="#36637A" fill-opacity="0.36"/>
<circle cx="198.621" cy="376.632" r="5" fill="#36637A" fill-opacity="0.36"/>
<circle cx="248.276" cy="376.632" r="5" fill="#36637A" fill-opacity="0.36"/>
<circle cx="297.931" cy="376.632" r="5" fill="#36637A" fill-opacity="0.36"/>
<circle cx="347.586" cy="376.632" r="5" fill="#36637A" fill-opacity="0.36"/>
<circle cx="397.241" cy="376.632" r="5" fill="#36637A" fill-opacity="0.36"/>
<circle cx="446.897" cy="376.632" r="5" fill="#36637A" fill-opacity="0.36"/>
<circle cx="496.552" cy="376.632" r="5" fill="#36637A" fill-opacity="0.36"/>
<circle cx="546.207" cy="376.632" r="5" fill="#36637A" fill-opacity="0.36"/>
<circle cx="595.862" cy="376.632" r="5" fill="#36637A" fill-opacity="0.36"/>
<circle cx="645.517" cy="376.632" r="5" fill="#36637A" fill-opacity="0.36"/>
<circle cx="695.172" cy="376.632" r="5" fill="#36637A" fill-opacity="0.36"/>
<circle cx="744.828" cy="376.632" r="5" fill="#36637A" fill-opacity="0.36"/>
<circle cx="794.483" cy="376.632" r="5" fill="#36637A" fill-opacity="0.36"/>
<circle cx="844.138" cy="376.632" r="5" fill="#36637A" fill-opacity="0.36"/>
<circle cx="893.793" cy="376.632" r="5" fill="#36637A" fill-opacity="0.36"/>
<circle cx="943.448" cy="376.632" r="5" fill="#36637A" fill-opacity="0.36"/>
<circle cx="993.103" cy="376.632" r="5" fill="#36637A" fill-opacity="0.36"/>
<circle cx="1042.76" cy="376.632" r="5" fill="#36637A" fill-opacity="0.36"/>
<circle cx="1092.41" cy="376.632" r="5" fill="#36637A" fill-opacity="0.36"/>
<circle cx="1142.07" cy="376.632" r="5" fill="#36637A" fill-opacity="0.36"/>
<circle cx="1191.72" cy="376.632" r="5" fill="#36637A" fill-opacity="0.36"/>
<circle cx="1241.38" cy="376.632" r="5" fill="#36637A" fill-opacity="0.36"/>
<circle cx="1291.03" cy="376.632" r="5" fill="#36637A" fill-opacity="0.36"/>
<circle cx="1340.69" cy="376.632" r="5" fill="#36637A" fill-opacity="0.36"/>
<circle cx="1390.34" cy="376.632" r="5" fill="#36637A" fill-opacity="0.36"/>
<circle cx="1440" cy="376.632" r="5" fill="#36637A" fill-opacity="0.36"/>
<circle cy="430.579" r="5" fill="#36637A" fill-opacity="0.36"/>
<circle cx="49.6552" cy="430.579" r="5" fill="#36637A" fill-opacity="0.36"/>
<circle cx="99.3104" cy="430.579" r="5" fill="#36637A" fill-opacity="0.36"/>
<circle cx="148.966" cy="430.579" r="5" fill="#36637A" fill-opacity="0.36"/>
<circle cx="198.621" cy="430.579" r="5" fill="#36637A" fill-opacity="0.36"/>
<circle cx="248.276" cy="430.579" r="5" fill="#36637A" fill-opacity="0.36"/>
<circle cx="297.931" cy="430.579" r="5" fill="#36637A" fill-opacity="0.36"/>
<circle cx="347.586" cy="430.579" r="5" fill="#36637A" fill-opacity="0.36"/>
<circle cx="397.241" cy="430.579" r="5" fill="#36637A" fill-opacity="0.36"/>
<circle cx="446.897" cy="430.579" r="5" fill="#36637A" fill-opacity="0.36"/>
<circle cx="496.552" cy="430.579" r="5" fill="#36637A" fill-opacity="0.36"/>
<circle cx="546.207" cy="430.579" r="5" fill="#36637A" fill-opacity="0.36"/>
<circle cx="595.862" cy="430.579" r="5" fill="#36637A" fill-opacity="0.36"/>
<circle cx="645.517" cy="430.579" r="5" fill="#36637A" fill-opacity="0.36"/>
<circle cx="695.172" cy="430.579" r="5" fill="#36637A" fill-opacity="0.36"/>
<circle cx="744.828" cy="430.579" r="5" fill="#36637A" fill-opacity="0.36"/>
<circle cx="794.483" cy="430.579" r="5" fill="#36637A" fill-opacity="0.36"/>
<circle cx="844.138" cy="430.579" r="5" fill="#36637A" fill-opacity="0.36"/>
<circle cx="893.793" cy="430.579" r="5" fill="#36637A" fill-opacity="0.36"/>
<circle cx="943.448" cy="430.579" r="5" fill="#36637A" fill-opacity="0.36"/>
<circle cx="993.103" cy="430.579" r="5" fill="#36637A" fill-opacity="0.36"/>
<circle cx="1042.76" cy="430.579" r="5" fill="#36637A" fill-opacity="0.36"/>
<circle cx="1092.41" cy="430.579" r="5" fill="#36637A" fill-opacity="0.36"/>
<circle cx="1142.07" cy="430.579" r="5" fill="#36637A" fill-opacity="0.36"/>
<circle cx="1191.72" cy="430.579" r="5" fill="#36637A" fill-opacity="0.36"/>
<circle cx="1241.38" cy="430.579" r="5" fill="#36637A" fill-opacity="0.36"/>
<circle cx="1291.03" cy="430.579" r="5" fill="#36637A" fill-opacity="0.36"/>
<circle cx="1340.69" cy="430.579" r="5" fill="#36637A" fill-opacity="0.36"/>
<circle cx="1390.34" cy="430.579" r="5" fill="#36637A" fill-opacity="0.36"/>
<circle cx="1440" cy="430.579" r="5" fill="#36637A" fill-opacity="0.36"/>
<circle cy="484.526" r="5" fill="#36637A" fill-opacity="0.36"/>
<circle cx="49.6552" cy="484.526" r="5" fill="#36637A" fill-opacity="0.36"/>
<circle cx="99.3104" cy="484.526" r="5" fill="#36637A" fill-opacity="0.36"/>
<circle cx="148.966" cy="484.526" r="5" fill="#36637A" fill-opacity="0.36"/>
<circle cx="198.621" cy="484.526" r="5" fill="#36637A" fill-opacity="0.36"/>
<circle cx="248.276" cy="484.526" r="5" fill="#36637A" fill-opacity="0.36"/>
<circle cx="297.931" cy="484.526" r="5" fill="#36637A" fill-opacity="0.36"/>
<circle cx="347.586" cy="484.526" r="5" fill="#36637A" fill-opacity="0.36"/>
<circle cx="397.241" cy="484.526" r="5" fill="#36637A" fill-opacity="0.36"/>
<circle cx="446.897" cy="484.526" r="5" fill="#36637A" fill-opacity="0.36"/>
<circle cx="496.552" cy="484.526" r="5" fill="#36637A" fill-opacity="0.36"/>
<circle cx="546.207" cy="484.526" r="5" fill="#36637A" fill-opacity="0.36"/>
<circle cx="595.862" cy="484.526" r="5" fill="#36637A" fill-opacity="0.36"/>
<circle cx="645.517" cy="484.526" r="5" fill="#36637A" fill-opacity="0.36"/>
<circle cx="695.172" cy="484.526" r="5" fill="#36637A" fill-opacity="0.36"/>
<circle cx="744.828" cy="484.526" r="5" fill="#36637A" fill-opacity="0.36"/>
<circle cx="794.483" cy="484.526" r="5" fill="#36637A" fill-opacity="0.36"/>
<circle cx="844.138" cy="484.526" r="5" fill="#36637A" fill-opacity="0.36"/>
<circle cx="893.793" cy="484.526" r="5" fill="#36637A" fill-opacity="0.36"/>
<circle cx="943.448" cy="484.526" r="5" fill="#36637A" fill-opacity="0.36"/>
<circle cx="993.103" cy="484.526" r="5" fill="#36637A" fill-opacity="0.36"/>
<circle cx="1042.76" cy="484.526" r="5" fill="#36637A" fill-opacity="0.36"/>
<circle cx="1092.41" cy="484.526" r="5" fill="#36637A" fill-opacity="0.36"/>
<circle cx="1142.07" cy="484.526" r="5" fill="#36637A" fill-opacity="0.36"/>
<circle cx="1191.72" cy="484.526" r="5" fill="#36637A" fill-opacity="0.36"/>
<circle cx="1241.38" cy="484.526" r="5" fill="#36637A" fill-opacity="0.36"/>
<circle cx="1291.03" cy="484.526" r="5" fill="#36637A" fill-opacity="0.36"/>
<circle cx="1340.69" cy="484.526" r="5" fill="#36637A" fill-opacity="0.36"/>
<circle cx="1390.34" cy="484.526" r="5" fill="#36637A" fill-opacity="0.36"/>
<circle cx="1440" cy="484.526" r="5" fill="#36637A" fill-opacity="0.36"/>
<circle cy="538.474" r="5" fill="#36637A" fill-opacity="0.36"/>
<circle cx="49.6552" cy="538.474" r="5" fill="#36637A" fill-opacity="0.36"/>
<circle cx="99.3104" cy="538.474" r="5" fill="#36637A" fill-opacity="0.36"/>
<circle cx="148.966" cy="538.474" r="5" fill="#36637A" fill-opacity="0.36"/>
<circle cx="198.621" cy="538.474" r="5" fill="#36637A" fill-opacity="0.36"/>
<circle cx="248.276" cy="538.474" r="5" fill="#36637A" fill-opacity="0.36"/>
<circle cx="297.931" cy="538.474" r="5" fill="#36637A" fill-opacity="0.36"/>
<circle cx="347.586" cy="538.474" r="5" fill="#36637A" fill-opacity="0.36"/>
<circle cx="397.241" cy="538.474" r="5" fill="#36637A" fill-opacity="0.36"/>
<circle cx="446.897" cy="538.474" r="5" fill="#36637A" fill-opacity="0.36"/>
<circle cx="496.552" cy="538.474" r="5" fill="#36637A" fill-opacity="0.36"/>
<circle cx="546.207" cy="538.474" r="5" fill="#36637A" fill-opacity="0.36"/>
<circle cx="595.862" cy="538.474" r="5" fill="#36637A" fill-opacity="0.36"/>
<circle cx="645.517" cy="538.474" r="5" fill="#36637A" fill-opacity="0.36"/>
<circle cx="695.172" cy="538.474" r="5" fill="#36637A" fill-opacity="0.36"/>
<circle cx="744.828" cy="538.474" r="5" fill="#36637A" fill-opacity="0.36"/>
<circle cx="794.483" cy="538.474" r="5" fill="#36637A" fill-opacity="0.36"/>
<circle cx="844.138" cy="538.474" r="5" fill="#36637A" fill-opacity="0.36"/>
<circle cx="893.793" cy="538.474" r="5" fill="#36637A" fill-opacity="0.36"/>
<circle cx="943.448" cy="538.474" r="5" fill="#36637A" fill-opacity="0.36"/>
<circle cx="993.103" cy="538.474" r="5" fill="#36637A" fill-opacity="0.36"/>
<circle cx="1042.76" cy="538.474" r="5" fill="#36637A" fill-opacity="0.36"/>
<circle cx="1092.41" cy="538.474" r="5" fill="#36637A" fill-opacity="0.36"/>
<circle cx="1142.07" cy="538.474" r="5" fill="#36637A" fill-opacity="0.36"/>
<circle cx="1191.72" cy="538.474" r="5" fill="#36637A" fill-opacity="0.36"/>
<circle cx="1241.38" cy="538.474" r="5" fill="#36637A" fill-opacity="0.36"/>
<circle cx="1291.03" cy="538.474" r="5" fill="#36637A" fill-opacity="0.36"/>
<circle cx="1340.69" cy="538.474" r="5" fill="#36637A" fill-opacity="0.36"/>
<circle cx="1390.34" cy="538.474" r="5" fill="#36637A" fill-opacity="0.36"/>
<circle cx="1440" cy="538.474" r="5" fill="#36637A" fill-opacity="0.36"/>
<circle cy="592.421" r="5" fill="#36637A" fill-opacity="0.36"/>
<circle cx="49.6552" cy="592.421" r="5" fill="#36637A" fill-opacity="0.36"/>
<circle cx="99.3104" cy="592.421" r="5" fill="#36637A" fill-opacity="0.36"/>
<circle cx="148.966" cy="592.421" r="5" fill="#36637A" fill-opacity="0.36"/>
<circle cx="198.621" cy="592.421" r="5" fill="#36637A" fill-opacity="0.36"/>
<circle cx="248.276" cy="592.421" r="5" fill="#36637A" fill-opacity="0.36"/>
<circle cx="297.931" cy="592.421" r="5" fill="#36637A" fill-opacity="0.36"/>
<circle cx="347.586" cy="592.421" r="5" fill="#36637A" fill-opacity="0.36"/>
<circle cx="397.241" cy="592.421" r="5" fill="#36637A" fill-opacity="0.36"/>
<circle cx="446.897" cy="592.421" r="5" fill="#36637A" fill-opacity="0.36"/>
<circle cx="496.552" cy="592.421" r="5" fill="#36637A" fill-opacity="0.36"/>
<circle cx="546.207" cy="592.421" r="5" fill="#36637A" fill-opacity="0.36"/>
<circle cx="595.862" cy="592.421" r="5" fill="#36637A" fill-opacity="0.36"/>
<circle cx="645.517" cy="592.421" r="5" fill="#36637A" fill-opacity="0.36"/>
<circle cx="695.172" cy="592.421" r="5" fill="#36637A" fill-opacity="0.36"/>
<circle cx="744.828" cy="592.421" r="5" fill="#36637A" fill-opacity="0.36"/>
<circle cx="794.483" cy="592.421" r="5" fill="#36637A" fill-opacity="0.36"/>
<circle cx="844.138" cy="592.421" r="5" fill="#36637A" fill-opacity="0.36"/>
<circle cx="893.793" cy="592.421" r="5" fill="#36637A" fill-opacity="0.36"/>
<circle cx="943.448" cy="592.421" r="5" fill="#36637A" fill-opacity="0.36"/>
<circle cx="993.103" cy="592.421" r="5" fill="#36637A" fill-opacity="0.36"/>
<circle cx="1042.76" cy="592.421" r="5" fill="#36637A" fill-opacity="0.36"/>
<circle cx="1092.41" cy="592.421" r="5" fill="#36637A" fill-opacity="0.36"/>
<circle cx="1142.07" cy="592.421" r="5" fill="#36637A" fill-opacity="0.36"/>
<circle cx="1191.72" cy="592.421" r="5" fill="#36637A" fill-opacity="0.36"/>
<circle cx="1241.38" cy="592.421" r="5" fill="#36637A" fill-opacity="0.36"/>
<circle cx="1291.03" cy="592.421" r="5" fill="#36637A" fill-opacity="0.36"/>
<circle cx="1340.69" cy="592.421" r="5" fill="#36637A" fill-opacity="0.36"/>
<circle cx="1390.34" cy="592.421" r="5" fill="#36637A" fill-opacity="0.36"/>
<circle cx="1440" cy="592.421" r="5" fill="#36637A" fill-opacity="0.36"/>
<circle cy="646.368" r="5" fill="#36637A" fill-opacity="0.36"/>
<circle cx="49.6552" cy="646.368" r="5" fill="#36637A" fill-opacity="0.36"/>
<circle cx="99.3104" cy="646.368" r="5" fill="#36637A" fill-opacity="0.36"/>
<circle cx="148.966" cy="646.368" r="5" fill="#36637A" fill-opacity="0.36"/>
<circle cx="198.621" cy="646.368" r="5" fill="#36637A" fill-opacity="0.36"/>
<circle cx="248.276" cy="646.368" r="5" fill="#36637A" fill-opacity="0.36"/>
<circle cx="297.931" cy="646.368" r="5" fill="#36637A" fill-opacity="0.36"/>
<circle cx="347.586" cy="646.368" r="5" fill="#36637A" fill-opacity="0.36"/>
<circle cx="397.241" cy="646.368" r="5" fill="#36637A" fill-opacity="0.36"/>
<circle cx="446.897" cy="646.368" r="5" fill="#36637A" fill-opacity="0.36"/>
<circle cx="496.552" cy="646.368" r="5" fill="#36637A" fill-opacity="0.36"/>
<circle cx="546.207" cy="646.368" r="5" fill="#36637A" fill-opacity="0.36"/>
<circle cx="595.862" cy="646.368" r="5" fill="#36637A" fill-opacity="0.36"/>
<circle cx="645.517" cy="646.368" r="5" fill="#36637A" fill-opacity="0.36"/>
<circle cx="695.172" cy="646.368" r="5" fill="#36637A" fill-opacity="0.36"/>
<circle cx="744.828" cy="646.368" r="5" fill="#36637A" fill-opacity="0.36"/>
<circle cx="794.483" cy="646.368" r="5" fill="#36637A" fill-opacity="0.36"/>
<circle cx="844.138" cy="646.368" r="5" fill="#36637A" fill-opacity="0.36"/>
<circle cx="893.793" cy="646.368" r="5" fill="#36637A" fill-opacity="0.36"/>
<circle cx="943.448" cy="646.368" r="5" fill="#36637A" fill-opacity="0.36"/>
<circle cx="993.103" cy="646.368" r="5" fill="#36637A" fill-opacity="0.36"/>
<circle cx="1042.76" cy="646.368" r="5" fill="#36637A" fill-opacity="0.36"/>
<circle cx="1092.41" cy="646.368" r="5" fill="#36637A" fill-opacity="0.36"/>
<circle cx="1142.07" cy="646.368" r="5" fill="#36637A" fill-opacity="0.36"/>
<circle cx="1191.72" cy="646.368" r="5" fill="#36637A" fill-opacity="0.36"/>
<circle cx="1241.38" cy="646.368" r="5" fill="#36637A" fill-opacity="0.36"/>
<circle cx="1291.03" cy="646.368" r="5" fill="#36637A" fill-opacity="0.36"/>
<circle cx="1340.69" cy="646.368" r="5" fill="#36637A" fill-opacity="0.36"/>
<circle cx="1390.34" cy="646.368" r="5" fill="#36637A" fill-opacity="0.36"/>
<circle cx="1440" cy="646.368" r="5" fill="#36637A" fill-opacity="0.36"/>
<circle cy="700.316" r="5" fill="#36637A" fill-opacity="0.36"/>
<circle cx="49.6552" cy="700.316" r="5" fill="#36637A" fill-opacity="0.36"/>
<circle cx="99.3104" cy="700.316" r="5" fill="#36637A" fill-opacity="0.36"/>
<circle cx="148.966" cy="700.316" r="5" fill="#36637A" fill-opacity="0.36"/>
<circle cx="198.621" cy="700.316" r="5" fill="#36637A" fill-opacity="0.36"/>
<circle cx="248.276" cy="700.316" r="5" fill="#36637A" fill-opacity="0.36"/>
<circle cx="297.931" cy="700.316" r="5" fill="#36637A" fill-opacity="0.36"/>
<circle cx="347.586" cy="700.316" r="5" fill="#36637A" fill-opacity="0.36"/>
<circle cx="397.241" cy="700.316" r="5" fill="#36637A" fill-opacity="0.36"/>
<circle cx="446.897" cy="700.316" r="5" fill="#36637A" fill-opacity="0.36"/>
<circle cx="496.552" cy="700.316" r="5" fill="#36637A" fill-opacity="0.36"/>
<circle cx="546.207" cy="700.316" r="5" fill="#36637A" fill-opacity="0.36"/>
<circle cx="595.862" cy="700.316" r="5" fill="#36637A" fill-opacity="0.36"/>
<circle cx="645.517" cy="700.316" r="5" fill="#36637A" fill-opacity="0.36"/>
<circle cx="695.172" cy="700.316" r="5" fill="#36637A" fill-opacity="0.36"/>
<circle cx="744.828" cy="700.316" r="5" fill="#36637A" fill-opacity="0.36"/>
<circle cx="794.483" cy="700.316" r="5" fill="#36637A" fill-opacity="0.36"/>
<circle cx="844.138" cy="700.316" r="5" fill="#36637A" fill-opacity="0.36"/>
<circle cx="893.793" cy="700.316" r="5" fill="#36637A" fill-opacity="0.36"/>
<circle cx="943.448" cy="700.316" r="5" fill="#36637A" fill-opacity="0.36"/>
<circle cx="993.103" cy="700.316" r="5" fill="#36637A" fill-opacity="0.36"/>
<circle cx="1042.76" cy="700.316" r="5" fill="#36637A" fill-opacity="0.36"/>
<circle cx="1092.41" cy="700.316" r="5" fill="#36637A" fill-opacity="0.36"/>
<circle cx="1142.07" cy="700.316" r="5" fill="#36637A" fill-opacity="0.36"/>
<circle cx="1191.72" cy="700.316" r="5" fill="#36637A" fill-opacity="0.36"/>
<circle cx="1241.38" cy="700.316" r="5" fill="#36637A" fill-opacity="0.36"/>
<circle cx="1291.03" cy="700.316" r="5" fill="#36637A" fill-opacity="0.36"/>
<circle cx="1340.69" cy="700.316" r="5" fill="#36637A" fill-opacity="0.36"/>
<circle cx="1390.34" cy="700.316" r="5" fill="#36637A" fill-opacity="0.36"/>
<circle cx="1440" cy="700.316" r="5" fill="#36637A" fill-opacity="0.36"/>
<circle cy="754.263" r="5" fill="#36637A" fill-opacity="0.36"/>
<circle cx="49.6552" cy="754.263" r="5" fill="#36637A" fill-opacity="0.36"/>
<circle cx="99.3104" cy="754.263" r="5" fill="#36637A" fill-opacity="0.36"/>
<circle cx="148.966" cy="754.263" r="5" fill="#36637A" fill-opacity="0.36"/>
<circle cx="198.621" cy="754.263" r="5" fill="#36637A" fill-opacity="0.36"/>
<circle cx="248.276" cy="754.263" r="5" fill="#36637A" fill-opacity="0.36"/>
<circle cx="297.931" cy="754.263" r="5" fill="#36637A" fill-opacity="0.36"/>
<circle cx="347.586" cy="754.263" r="5" fill="#36637A" fill-opacity="0.36"/>
<circle cx="397.241" cy="754.263" r="5" fill="#36637A" fill-opacity="0.36"/>
<circle cx="446.897" cy="754.263" r="5" fill="#36637A" fill-opacity="0.36"/>
<circle cx="496.552" cy="754.263" r="5" fill="#36637A" fill-opacity="0.36"/>
<circle cx="546.207" cy="754.263" r="5" fill="#36637A" fill-opacity="0.36"/>
<circle cx="595.862" cy="754.263" r="5" fill="#36637A" fill-opacity="0.36"/>
<circle cx="645.517" cy="754.263" r="5" fill="#36637A" fill-opacity="0.36"/>
<circle cx="695.172" cy="754.263" r="5" fill="#36637A" fill-opacity="0.36"/>
<circle cx="744.828" cy="754.263" r="5" fill="#36637A" fill-opacity="0.36"/>
<circle cx="794.483" cy="754.263" r="5" fill="#36637A" fill-opacity="0.36"/>
<circle cx="844.138" cy="754.263" r="5" fill="#36637A" fill-opacity="0.36"/>
<circle cx="893.793" cy="754.263" r="5" fill="#36637A" fill-opacity="0.36"/>
<circle cx="943.448" cy="754.263" r="5" fill="#36637A" fill-opacity="0.36"/>
<circle cx="993.103" cy="754.263" r="5" fill="#36637A" fill-opacity="0.36"/>
<circle cx="1042.76" cy="754.263" r="5" fill="#36637A" fill-opacity="0.36"/>
<circle cx="1092.41" cy="754.263" r="5" fill="#36637A" fill-opacity="0.36"/>
<circle cx="1142.07" cy="754.263" r="5" fill="#36637A" fill-opacity="0.36"/>
<circle cx="1191.72" cy="754.263" r="5" fill="#36637A" fill-opacity="0.36"/>
<circle cx="1241.38" cy="754.263" r="5" fill="#36637A" fill-opacity="0.36"/>
<circle cx="1291.03" cy="754.263" r="5" fill="#36637A" fill-opacity="0.36"/>
<circle cx="1340.69" cy="754.263" r="5" fill="#36637A" fill-opacity="0.36"/>
<circle cx="1390.34" cy="754.263" r="5" fill="#36637A" fill-opacity="0.36"/>
<circle cx="1440" cy="754.263" r="5" fill="#36637A" fill-opacity="0.36"/>
<circle cy="808.211" r="5" fill="#36637A" fill-opacity="0.36"/>
<circle cx="49.6552" cy="808.211" r="5" fill="#36637A" fill-opacity="0.36"/>
<circle cx="99.3104" cy="808.211" r="5" fill="#36637A" fill-opacity="0.36"/>
<circle cx="148.966" cy="808.211" r="5" fill="#36637A" fill-opacity="0.36"/>
<circle cx="198.621" cy="808.211" r="5" fill="#36637A" fill-opacity="0.36"/>
<circle cx="248.276" cy="808.211" r="5" fill="#36637A" fill-opacity="0.36"/>
<circle cx="297.931" cy="808.211" r="5" fill="#36637A" fill-opacity="0.36"/>
<circle cx="347.586" cy="808.211" r="5" fill="#36637A" fill-opacity="0.36"/>
<circle cx="397.241" cy="808.211" r="5" fill="#36637A" fill-opacity="0.36"/>
<circle cx="446.897" cy="808.211" r="5" fill="#36637A" fill-opacity="0.36"/>
<circle cx="496.552" cy="808.211" r="5" fill="#36637A" fill-opacity="0.36"/>
<circle cx="546.207" cy="808.211" r="5" fill="#36637A" fill-opacity="0.36"/>
<circle cx="595.862" cy="808.211" r="5" fill="#36637A" fill-opacity="0.36"/>
<circle cx="645.517" cy="808.211" r="5" fill="#36637A" fill-opacity="0.36"/>
<circle cx="695.172" cy="808.211" r="5" fill="#36637A" fill-opacity="0.36"/>
<circle cx="744.828" cy="808.211" r="5" fill="#36637A" fill-opacity="0.36"/>
<circle cx="794.483" cy="808.211" r="5" fill="#36637A" fill-opacity="0.36"/>
<circle cx="844.138" cy="808.211" r="5" fill="#36637A" fill-opacity="0.36"/>
<circle cx="893.793" cy="808.211" r="5" fill="#36637A" fill-opacity="0.36"/>
<circle cx="943.448" cy="808.211" r="5" fill="#36637A" fill-opacity="0.36"/>
<circle cx="993.103" cy="808.211" r="5" fill="#36637A" fill-opacity="0.36"/>
<circle cx="1042.76" cy="808.211" r="5" fill="#36637A" fill-opacity="0.36"/>
<circle cx="1092.41" cy="808.211" r="5" fill="#36637A" fill-opacity="0.36"/>
<circle cx="1142.07" cy="808.211" r="5" fill="#36637A" fill-opacity="0.36"/>
<circle cx="1191.72" cy="808.211" r="5" fill="#36637A" fill-opacity="0.36"/>
<circle cx="1241.38" cy="808.211" r="5" fill="#36637A" fill-opacity="0.36"/>
<circle cx="1291.03" cy="808.211" r="5" fill="#36637A" fill-opacity="0.36"/>
<circle cx="1340.69" cy="808.211" r="5" fill="#36637A" fill-opacity="0.36"/>
<circle cx="1390.34" cy="808.211" r="5" fill="#36637A" fill-opacity="0.36"/>
<circle cx="1440" cy="808.211" r="5" fill="#36637A" fill-opacity="0.36"/>
<circle cy="862.158" r="5" fill="#36637A" fill-opacity="0.36"/>
<circle cx="49.6552" cy="862.158" r="5" fill="#36637A" fill-opacity="0.36"/>
<circle cx="99.3104" cy="862.158" r="5" fill="#36637A" fill-opacity="0.36"/>
<circle cx="148.966" cy="862.158" r="5" fill="#36637A" fill-opacity="0.36"/>
<circle cx="198.621" cy="862.158" r="5" fill="#36637A" fill-opacity="0.36"/>
<circle cx="248.276" cy="862.158" r="5" fill="#36637A" fill-opacity="0.36"/>
<circle cx="297.931" cy="862.158" r="5" fill="#36637A" fill-opacity="0.36"/>
<circle cx="347.586" cy="862.158" r="5" fill="#36637A" fill-opacity="0.36"/>
<circle cx="397.241" cy="862.158" r="5" fill="#36637A" fill-opacity="0.36"/>
<circle cx="446.897" cy="862.158" r="5" fill="#36637A" fill-opacity="0.36"/>
<circle cx="496.552" cy="862.158" r="5" fill="#36637A" fill-opacity="0.36"/>
<circle cx="546.207" cy="862.158" r="5" fill="#36637A" fill-opacity="0.36"/>
<circle cx="595.862" cy="862.158" r="5" fill="#36637A" fill-opacity="0.36"/>
<circle cx="645.517" cy="862.158" r="5" fill="#36637A" fill-opacity="0.36"/>
<circle cx="695.172" cy="862.158" r="5" fill="#36637A" fill-opacity="0.36"/>
<circle cx="744.828" cy="862.158" r="5" fill="#36637A" fill-opacity="0.36"/>
<circle cx="794.483" cy="862.158" r="5" fill="#36637A" fill-opacity="0.36"/>
<circle cx="844.138" cy="862.158" r="5" fill="#36637A" fill-opacity="0.36"/>
<circle cx="893.793" cy="862.158" r="5" fill="#36637A" fill-opacity="0.36"/>
<circle cx="943.448" cy="862.158" r="5" fill="#36637A" fill-opacity="0.36"/>
<circle cx="993.103" cy="862.158" r="5" fill="#36637A" fill-opacity="0.36"/>
<circle cx="1042.76" cy="862.158" r="5" fill="#36637A" fill-opacity="0.36"/>
<circle cx="1092.41" cy="862.158" r="5" fill="#36637A" fill-opacity="0.36"/>
<circle cx="1142.07" cy="862.158" r="5" fill="#36637A" fill-opacity="0.36"/>
<circle cx="1191.72" cy="862.158" r="5" fill="#36637A" fill-opacity="0.36"/>
<circle cx="1241.38" cy="862.158" r="5" fill="#36637A" fill-opacity="0.36"/>
<circle cx="1291.03" cy="862.158" r="5" fill="#36637A" fill-opacity="0.36"/>
<circle cx="1340.69" cy="862.158" r="5" fill="#36637A" fill-opacity="0.36"/>
<circle cx="1390.34" cy="862.158" r="5" fill="#36637A" fill-opacity="0.36"/>
<circle cx="1440" cy="862.158" r="5" fill="#36637A" fill-opacity="0.36"/>
<circle cy="916.105" r="5" fill="#36637A" fill-opacity="0.36"/>
<circle cx="49.6552" cy="916.105" r="5" fill="#36637A" fill-opacity="0.36"/>
<circle cx="99.3104" cy="916.105" r="5" fill="#36637A" fill-opacity="0.36"/>
<circle cx="148.966" cy="916.105" r="5" fill="#36637A" fill-opacity="0.36"/>
<circle cx="198.621" cy="916.105" r="5" fill="#36637A" fill-opacity="0.36"/>
<circle cx="248.276" cy="916.105" r="5" fill="#36637A" fill-opacity="0.36"/>
<circle cx="297.931" cy="916.105" r="5" fill="#36637A" fill-opacity="0.36"/>
<circle cx="347.586" cy="916.105" r="5" fill="#36637A" fill-opacity="0.36"/>
<circle cx="397.241" cy="916.105" r="5" fill="#36637A" fill-opacity="0.36"/>
<circle cx="446.897" cy="916.105" r="5" fill="#36637A" fill-opacity="0.36"/>
<circle cx="496.552" cy="916.105" r="5" fill="#36637A" fill-opacity="0.36"/>
<circle cx="546.207" cy="916.105" r="5" fill="#36637A" fill-opacity="0.36"/>
<circle cx="595.862" cy="916.105" r="5" fill="#36637A" fill-opacity="0.36"/>
<circle cx="645.517" cy="916.105" r="5" fill="#36637A" fill-opacity="0.36"/>
<circle cx="695.172" cy="916.105" r="5" fill="#36637A" fill-opacity="0.36"/>
<circle cx="744.828" cy="916.105" r="5" fill="#36637A" fill-opacity="0.36"/>
<circle cx="794.483" cy="916.105" r="5" fill="#36637A" fill-opacity="0.36"/>
<circle cx="844.138" cy="916.105" r="5" fill="#36637A" fill-opacity="0.36"/>
<circle cx="893.793" cy="916.105" r="5" fill="#36637A" fill-opacity="0.36"/>
<circle cx="943.448" cy="916.105" r="5" fill="#36637A" fill-opacity="0.36"/>
<circle cx="993.103" cy="916.105" r="5" fill="#36637A" fill-opacity="0.36"/>
<circle cx="1042.76" cy="916.105" r="5" fill="#36637A" fill-opacity="0.36"/>
<circle cx="1092.41" cy="916.105" r="5" fill="#36637A" fill-opacity="0.36"/>
<circle cx="1142.07" cy="916.105" r="5" fill="#36637A" fill-opacity="0.36"/>
<circle cx="1191.72" cy="916.105" r="5" fill="#36637A" fill-opacity="0.36"/>
<circle cx="1241.38" cy="916.105" r="5" fill="#36637A" fill-opacity="0.36"/>
<circle cx="1291.03" cy="916.105" r="5" fill="#36637A" fill-opacity="0.36"/>
<circle cx="1340.69" cy="916.105" r="5" fill="#36637A" fill-opacity="0.36"/>
<circle cx="1390.34" cy="916.105" r="5" fill="#36637A" fill-opacity="0.36"/>
<circle cx="1440" cy="916.105" r="5" fill="#36637A" fill-opacity="0.36"/>
<circle cy="970.053" r="5" fill="#36637A" fill-opacity="0.36"/>
<circle cx="49.6552" cy="970.053" r="5" fill="#36637A" fill-opacity="0.36"/>
<circle cx="99.3104" cy="970.053" r="5" fill="#36637A" fill-opacity="0.36"/>
<circle cx="148.966" cy="970.053" r="5" fill="#36637A" fill-opacity="0.36"/>
<circle cx="198.621" cy="970.053" r="5" fill="#36637A" fill-opacity="0.36"/>
<circle cx="248.276" cy="970.053" r="5" fill="#36637A" fill-opacity="0.36"/>
<circle cx="297.931" cy="970.053" r="5" fill="#36637A" fill-opacity="0.36"/>
<circle cx="347.586" cy="970.053" r="5" fill="#36637A" fill-opacity="0.36"/>
<circle cx="397.241" cy="970.053" r="5" fill="#36637A" fill-opacity="0.36"/>
<circle cx="446.897" cy="970.053" r="5" fill="#36637A" fill-opacity="0.36"/>
<circle cx="496.552" cy="970.053" r="5" fill="#36637A" fill-opacity="0.36"/>
<circle cx="546.207" cy="970.053" r="5" fill="#36637A" fill-opacity="0.36"/>
<circle cx="595.862" cy="970.053" r="5" fill="#36637A" fill-opacity="0.36"/>
<circle cx="645.517" cy="970.053" r="5" fill="#36637A" fill-opacity="0.36"/>
<circle cx="695.172" cy="970.053" r="5" fill="#36637A" fill-opacity="0.36"/>
<circle cx="744.828" cy="970.053" r="5" fill="#36637A" fill-opacity="0.36"/>
<circle cx="794.483" cy="970.053" r="5" fill="#36637A" fill-opacity="0.36"/>
<circle cx="844.138" cy="970.053" r="5" fill="#36637A" fill-opacity="0.36"/>
<circle cx="893.793" cy="970.053" r="5" fill="#36637A" fill-opacity="0.36"/>
<circle cx="943.448" cy="970.053" r="5" fill="#36637A" fill-opacity="0.36"/>
<circle cx="993.103" cy="970.053" r="5" fill="#36637A" fill-opacity="0.36"/>
<circle cx="1042.76" cy="970.053" r="5" fill="#36637A" fill-opacity="0.36"/>
<circle cx="1092.41" cy="970.053" r="5" fill="#36637A" fill-opacity="0.36"/>
<circle cx="1142.07" cy="970.053" r="5" fill="#36637A" fill-opacity="0.36"/>
<circle cx="1191.72" cy="970.053" r="5" fill="#36637A" fill-opacity="0.36"/>
<circle cx="1241.38" cy="970.053" r="5" fill="#36637A" fill-opacity="0.36"/>
<circle cx="1291.03" cy="970.053" r="5" fill="#36637A" fill-opacity="0.36"/>
<circle cx="1340.69" cy="970.053" r="5" fill="#36637A" fill-opacity="0.36"/>
<circle cx="1390.34" cy="970.053" r="5" fill="#36637A" fill-opacity="0.36"/>
<circle cx="1440" cy="970.053" r="5" fill="#36637A" fill-opacity="0.36"/>
<circle cy="1024" r="5" fill="#36637A" fill-opacity="0.36"/>
<circle cx="49.6552" cy="1024" r="5" fill="#36637A" fill-opacity="0.36"/>
<circle cx="99.3104" cy="1024" r="5" fill="#36637A" fill-opacity="0.36"/>
<circle cx="148.966" cy="1024" r="5" fill="#36637A" fill-opacity="0.36"/>
<circle cx="198.621" cy="1024" r="5" fill="#36637A" fill-opacity="0.36"/>
<circle cx="248.276" cy="1024" r="5" fill="#36637A" fill-opacity="0.36"/>
<circle cx="297.931" cy="1024" r="5" fill="#36637A" fill-opacity="0.36"/>
<circle cx="347.586" cy="1024" r="5" fill="#36637A" fill-opacity="0.36"/>
<circle cx="397.241" cy="1024" r="5" fill="#36637A" fill-opacity="0.36"/>
<circle cx="446.897" cy="1024" r="5" fill="#36637A" fill-opacity="0.36"/>
<circle cx="496.552" cy="1024" r="5" fill="#36637A" fill-opacity="0.36"/>
<circle cx="546.207" cy="1024" r="5" fill="#36637A" fill-opacity="0.36"/>
<circle cx="595.862" cy="1024" r="5" fill="#36637A" fill-opacity="0.36"/>
<circle cx="645.517" cy="1024" r="5" fill="#36637A" fill-opacity="0.36"/>
<circle cx="695.172" cy="1024" r="5" fill="#36637A" fill-opacity="0.36"/>
<circle cx="744.828" cy="1024" r="5" fill="#36637A" fill-opacity="0.36"/>
<circle cx="794.483" cy="1024" r="5" fill="#36637A" fill-opacity="0.36"/>
<circle cx="844.138" cy="1024" r="5" fill="#36637A" fill-opacity="0.36"/>
<circle cx="893.793" cy="1024" r="5" fill="#36637A" fill-opacity="0.36"/>
<circle cx="943.448" cy="1024" r="5" fill="#36637A" fill-opacity="0.36"/>
<circle cx="993.103" cy="1024" r="5" fill="#36637A" fill-opacity="0.36"/>
<circle cx="1042.76" cy="1024" r="5" fill="#36637A" fill-opacity="0.36"/>
<circle cx="1092.41" cy="1024" r="5" fill="#36637A" fill-opacity="0.36"/>
<circle cx="1142.07" cy="1024" r="5" fill="#36637A" fill-opacity="0.36"/>
<circle cx="1191.72" cy="1024" r="5" fill="#36637A" fill-opacity="0.36"/>
<circle cx="1241.38" cy="1024" r="5" fill="#36637A" fill-opacity="0.36"/>
<circle cx="1291.03" cy="1024" r="5" fill="#36637A" fill-opacity="0.36"/>
<circle cx="1340.69" cy="1024" r="5" fill="#36637A" fill-opacity="0.36"/>
<circle cx="1390.34" cy="1024" r="5" fill="#36637A" fill-opacity="0.36"/>
<circle cx="1440" cy="1024" r="5" fill="#36637A" fill-opacity="0.36"/>
</g>
<defs>
<clipPath id="clip0_1_2">
<rect width="1440" height="1024" fill="white"/>
</clipPath>
</defs>
</svg>
