<svg version="1.2" xmlns="http://www.w3.org/2000/svg" viewBox="0 0 657 657" width="657" height="657">
	<title>favicon-svg</title>
	<style>
		.s0 { fill: #ffffff } 
		.s1 { fill: #222021 } 
	</style>
	<g>
		<path id="Shape 1" class="s0" d="m328.5 657c-181.7 0-328.5-146.8-328.5-328.5 0-181.7 146.8-328.5 328.5-328.5 181.7 0 328.5 146.8 328.5 328.5 0 181.7-146.8 328.5-328.5 328.5z"/>
		<path fill-rule="evenodd" class="s1" d="m364 26.5c69.4 8.6 133.4 40.4 182.5 90.6 17 17.3 24.5 26.6 37.7 46.4 32.2 48.4 49.8 106.3 49.8 164.5 0 105.3-53 201.5-141.8 257.2-12.2 7.7-38.7 21.3-50.2 25.9-21.5 8.5-47.3 15.5-70.5 19.1-19.1 3-66.6 3.3-84.5 0.5-46.3-7.1-85.3-21.3-123.7-45.1-33.8-20.9-66.8-52.4-89.5-85.6-34-49.5-51.8-108.4-51.9-171-0.1-64.4 17.5-120.7 54.4-173.5 18.9-27 47.3-55.2 75.7-75.1 45.5-31.8 98-50.7 154.1-55.4 13.8-1.1 42.3-0.4 57.9 1.5zm-75.8 66c-53.3 17.7-94.1 53.5-120 105.2-7.2 14.2-14.4 36-28.6 85.8-8.3 29.2-9 33.2-9 51.5-0.1 14.3 0.2 17.6 2.2 24.5 6.1 21.2 20.4 42 38.1 55.3 16.2 12.2 150.9 88.2 156.3 88.2 3.6 0 93.4-49 132.7-72.3 23.5-14 33.5-22.2 44.2-35.9 7.6-9.8 15.7-25.5 18.4-35.3 1-3.6 1.9-11.7 2.2-20.5 0.7-18.6-0.8-26.7-12.2-66.4-15.1-52.8-21.9-71.1-33.9-90.4-23.8-38.3-56.9-67.3-95.1-83.3-15.3-6.4-29.7-10.8-43.4-13.3-15.2-2.9-27.4-1.3-51.9 6.9zm-146.3 338.5c-1.2 0-47.1 24.3-52.5 27.7-1.8 1.2-1.8 1.3 0.6 3.3 24.5 19.9 69.3 48.3 111.5 70.7 35.7 19 68 33.1 112 49.2l14.1 5.1 11.4-4.1c36.9-12.9 63.5-24 96.5-40.4 29.6-14.6 49.8-25.9 73.5-40.9 26.9-17 58-39.3 58-41.6 0-0.9-52.6-29-54.3-29-0.6 0.1-2.6 1.3-4.3 2.8-1.7 1.5-10.2 9-18.9 16.7-36.6 32.3-62.4 50.3-98.3 68.6-14.7 7.5-43.1 19.3-57.7 23.9l-7 2.2-18-6.7c-32.1-11.9-59-25.5-85.7-43-21.7-14.3-38.4-27.7-72.4-58.1-3.9-3.5-7.8-6.4-8.5-6.4z"/>
		<path fill-rule="evenodd" class="s1" d="m392.5 191.4c17.9 15 45.2 41.9 57 56.1 8.9 10.7 21.5 29.6 25.8 38.7 7.4 15.6 11.5 34.3 10.3 46.6-2.4 23.9-14.1 44.9-32.1 57.7-6.2 4.4-21.9 13.4-55.5 32-35.3 19.4-42.3 23.3-56.7 30.8l-14.2 7.4-8.8-4.7c-32.9-17.5-41.6-22.2-56.3-30.3-63-34.5-67.4-37.4-78.4-53-14.5-20.4-17.6-48.2-8.4-75.2 4.8-14.2 17.7-34.8 33.3-53.4 7.9-9.5 34.8-36.2 47.6-47.3 18.8-16.2 39.5-28.9 54.9-33.5 23.7-7 51 2.4 81.5 28.1zm-89 90.1l-20.2-0.3-20.3-0.2v46h41l-0.2-22.8zm89.5-0.5h-41v46h41z"/>
	</g>
</svg>